<svg width="728" height="212" viewBox="0 0 728 212" fill="none" xmlns="http://www.w3.org/2000/svg">
<g clip-path="url(#clip0_2_19)">
<g filter="url(#filter0_d_2_19)">
<path d="M167.204 0.450189C125.783 4.19777 87.6166 29.4447 69.8649 64.9481C67.8924 68.6957 65.3283 74.6129 64.1449 77.966C62.9614 81.4178 61.8945 84.5999 61.5 84.5999C59.6262 84.5999 35.1931 59.1889 31.8 53.0999C22.5297 38.4054 21.3435 23.2316 29.7262 15.4405C33.178 12.2847 42.2511 8.33983 50.0421 6.7619C63.6518 3.9019 94.9145 5.38121 111.581 9.6219C115.428 10.7067 117.4 10.7067 118.879 10.0164C120.457 9.12882 119.57 8.63569 112.962 7.05776C99.0566 3.80328 86.729 2.32397 71.8373 2.32397C55.3676 2.32397 45.3083 3.90191 36.4324 7.84674C16.9055 16.624 15.5248 38.0247 33.0793 61.0033C38.3062 67.9067 49.0559 78.755 57.0442 85.1653L61.3835 88.6171L60.1014 95.4219C58.7207 103.312 59.4111 127.868 61.1862 133.785C62.0738 136.744 62.7642 137.434 64.8352 137.434C67.0049 137.434 67.3007 137.138 66.709 134.673C64.5393 124.416 63.849 112.483 65.0324 103.312C65.6242 97.986 66.3145 93.4495 66.5118 93.2522C66.709 93.055 71.0483 95.8164 76.1766 99.2681C90.378 109.13 111.187 121.359 120.063 125.107C122.726 126.192 123.219 126.192 123.712 125.008C124.106 124.022 122.923 122.937 119.767 121.655C107.637 116.428 68.0897 91.1812 68.0897 88.6171C68.0897 86.6447 73.7111 74.0212 77.0642 68.2026C90.7725 44.8295 114.54 23.5274 138.209 13.5667C152.213 7.64949 164.442 5.18397 186.237 3.70466C191.76 3.31018 196.297 2.71846 196.297 2.22535C196.297 0.351565 179.432 -0.634639 167.204 0.450189Z" fill="black"/>
<path d="M197.998 65.7379C189.812 67.02 177.639 69.2268 159.098 75.8344C132.076 85.4992 124.581 90.0358 129.413 93.9806C130.695 95.0654 133.259 94.2765 144.502 89.8385C182.274 74.7496 197.264 71.002 219.75 70.9033C236.318 70.9033 243.5 71.6379 250.5 77.0379C254 80.4999 255.942 80.3594 257 91.9999C257.5 97.4999 253.298 116 247.455 127.709C234.834 153 223 166.5 190.5 187C171.741 194.569 170.998 196.238 149.236 198.025C134.936 198.025 128.723 196.941 117.184 192.503C99.8269 185.796 81.5821 170.313 74.2841 156.013C70.931 149.405 69.9448 148.321 67.7752 148.321C64.0276 148.321 63.8303 149.011 66 154.534C74.6786 176.625 98.1986 196.337 126.7 203.438C146.5 208.371 166.652 204.194 177.5 201.038C225.5 183 263 138.31 263 88.9999C261.5 75.4999 259 75.4999 255 71.4999C248.7 66.9999 239.671 64.3944 219.75 63.9999C210.775 63.8026 201.252 65.2448 197.998 65.7379Z" fill="black"/>
<path d="M42.5469 92.6605C17.3 107.355 3 121.359 3 131.221C3 134.673 3.09862 136.64 5.95862 139.5C10.5938 144.135 17.5959 145.324 32.0931 146.014C63.9476 147.592 127.163 138.125 171.148 125.304C178.348 123.233 179.235 123.134 181.602 124.515C183.969 125.797 184.462 125.797 186.829 124.318C189.59 122.444 190.379 118.105 188.21 115.935C186.336 114.061 182.292 114.554 179.63 117.118C173.614 122.838 119.668 134.87 76.9655 139.998C57.0441 142.464 24.4007 142.563 16.7083 140.196C10.5938 138.223 5.95862 134.377 5.95862 131.123C5.95862 125.698 16.0179 114.653 29.3317 105.284C35.4462 101.142 51.0283 91.7729 53.691 90.7867C54.3814 90.4908 54.2828 89.8005 53.2966 88.7157C51.9159 87.335 50.9297 87.7295 42.5469 92.6605Z" fill="black"/>
</g>
</g>
<g filter="url(#filter1_d_2_19)">
<path d="M310.884 106.868C307.953 106.868 305.312 106.357 302.959 105.335C300.607 104.313 298.602 102.857 296.944 100.968C295.305 99.0781 294.052 96.8029 293.184 94.1422C292.316 91.4621 291.882 88.4735 291.882 85.1765C291.882 80.819 292.634 77.0206 294.138 73.7814C295.661 70.5229 297.84 67.9971 300.675 66.2039C303.509 64.4108 306.912 63.5142 310.884 63.5142C315.319 63.5142 318.924 64.5554 321.701 66.6377C324.496 68.7008 326.444 71.4773 327.543 74.9672L323.262 76.0083C322.356 73.4632 320.862 71.4291 318.779 69.9059C316.716 68.3827 314.142 67.6211 311.057 67.6211C307.799 67.6018 305.09 68.3345 302.93 69.8191C300.771 71.2845 299.142 73.3475 298.043 76.0083C296.963 78.6498 296.413 81.7059 296.394 85.1765C296.375 88.6471 296.905 91.7031 297.985 94.3446C299.084 96.9668 300.723 99.0299 302.902 100.534C305.08 102.018 307.799 102.77 311.057 102.79C314.046 102.79 316.514 102.211 318.461 101.054C320.409 99.8975 321.884 98.2394 322.886 96.0799C323.908 93.9204 324.487 91.3657 324.622 88.4157H315.02V84.7716H329.076C329.133 85.215 329.162 85.6874 329.162 86.1887C329.182 86.6707 329.191 87.0178 329.191 87.2299C329.191 90.9897 328.516 94.3542 327.167 97.3235C325.817 100.274 323.783 102.607 321.064 104.323C318.365 106.019 314.971 106.868 310.884 106.868ZM335.558 106V63.4853H339.81V106H335.558ZM361.524 106.868C358.42 106.868 355.769 106.164 353.571 104.756C351.373 103.349 349.686 101.401 348.509 98.9142C347.333 96.427 346.745 93.5734 346.745 90.3534C346.745 87.0757 347.343 84.2028 348.538 81.7348C349.734 79.2668 351.431 77.3484 353.629 75.9794C355.846 74.5912 358.478 73.8971 361.524 73.8971C364.648 73.8971 367.308 74.6008 369.507 76.0083C371.724 77.3966 373.411 79.3343 374.568 81.8216C375.744 84.2895 376.332 87.1335 376.332 90.3534C376.332 93.6312 375.744 96.5137 374.568 99.001C373.392 101.469 371.695 103.397 369.478 104.785C367.26 106.174 364.609 106.868 361.524 106.868ZM361.524 102.79C364.995 102.79 367.578 101.642 369.275 99.348C370.972 97.0343 371.82 94.0361 371.82 90.3534C371.82 86.5743 370.962 83.5665 369.246 81.3299C367.55 79.0933 364.975 77.975 361.524 77.975C359.191 77.975 357.263 78.5052 355.74 79.5657C354.236 80.6069 353.108 82.0626 352.356 83.9328C351.623 85.7838 351.257 87.924 351.257 90.3534C351.257 94.1132 352.125 97.1307 353.86 99.4059C355.595 101.662 358.15 102.79 361.524 102.79ZM396.739 106.868C393.866 106.868 391.437 106.145 389.451 104.699C387.465 103.233 385.961 101.257 384.939 98.7696C383.917 96.2631 383.406 93.4577 383.406 90.3534C383.406 87.1913 383.917 84.3763 384.939 81.9083C385.98 79.4211 387.503 77.464 389.509 76.0373C391.514 74.6105 393.982 73.8971 396.912 73.8971C399.766 73.8971 402.215 74.6201 404.259 76.0662C406.302 77.5123 407.864 79.4789 408.944 81.9662C410.043 84.4534 410.592 87.2492 410.592 90.3534C410.592 93.477 410.043 96.2824 408.944 98.7696C407.845 101.257 406.264 103.233 404.201 104.699C402.138 106.145 399.65 106.868 396.739 106.868ZM382.683 106V64.3529H386.963V82.4868H386.501V106H382.683ZM396.305 102.905C398.484 102.905 400.296 102.356 401.742 101.257C403.188 100.158 404.268 98.6636 404.982 96.774C405.714 94.8652 406.081 92.725 406.081 90.3534C406.081 88.0011 405.724 85.8802 405.01 83.9907C404.297 82.1011 403.208 80.6069 401.742 79.5078C400.296 78.4088 398.455 77.8593 396.218 77.8593C394.04 77.8593 392.227 78.3895 390.781 79.45C389.354 80.5105 388.284 81.9855 387.571 83.875C386.857 85.7453 386.501 87.9047 386.501 90.3534C386.501 92.7636 386.857 94.923 387.571 96.8319C388.284 98.7214 389.364 100.206 390.81 101.286C392.256 102.366 394.088 102.905 396.305 102.905ZM425.88 106.868C423.528 106.868 421.551 106.443 419.951 105.595C418.37 104.747 417.184 103.619 416.394 102.211C415.603 100.804 415.208 99.2709 415.208 97.6127C415.208 95.916 415.545 94.4699 416.22 93.2745C416.914 92.0598 417.85 91.0668 419.026 90.2956C420.221 89.5243 421.6 88.9363 423.161 88.5314C424.743 88.1458 426.487 87.8083 428.396 87.5191C430.324 87.2106 432.204 86.9503 434.036 86.7382C435.887 86.5069 437.507 86.2851 438.895 86.073L437.391 86.9985C437.449 83.9136 436.851 81.6288 435.598 80.1441C434.344 78.6595 432.166 77.9172 429.061 77.9172C426.921 77.9172 425.109 78.3992 423.624 79.3632C422.159 80.3273 421.127 81.8505 420.53 83.9328L416.394 82.7181C417.107 79.9224 418.544 77.7533 420.703 76.2108C422.863 74.6683 425.668 73.8971 429.119 73.8971C431.973 73.8971 434.393 74.4369 436.379 75.5167C438.384 76.5771 439.801 78.1196 440.63 80.1441C441.016 81.0503 441.266 82.0626 441.382 83.1809C441.498 84.2992 441.556 85.4368 441.556 86.5936V106H437.767V98.1623L438.866 98.625C437.805 101.305 436.157 103.349 433.92 104.756C431.684 106.164 429.004 106.868 425.88 106.868ZM426.372 103.195C428.358 103.195 430.093 102.838 431.578 102.125C433.062 101.411 434.258 100.437 435.164 99.2034C436.07 97.9502 436.658 96.5426 436.928 94.9809C437.16 93.9783 437.285 92.8792 437.304 91.6838C437.323 90.4691 437.333 89.5629 437.333 88.9652L438.953 89.8039C437.507 89.9967 435.935 90.1895 434.238 90.3824C432.561 90.5752 430.903 90.7969 429.264 91.0475C427.644 91.2982 426.179 91.5971 424.868 91.9441C423.981 92.1948 423.123 92.5515 422.294 93.0142C421.465 93.4577 420.78 94.0554 420.24 94.8074C419.72 95.5593 419.459 96.4944 419.459 97.6127C419.459 98.519 419.681 99.3962 420.125 100.245C420.587 101.093 421.32 101.797 422.323 102.356C423.345 102.915 424.694 103.195 426.372 103.195ZM449.663 106V63.4853H453.915V106H449.663ZM305.273 175V137.431H290.726V133.353H324.072V137.431H309.525V175H305.273ZM337.295 175.868C334.249 175.868 331.607 175.193 329.371 173.843C327.153 172.493 325.428 170.594 324.194 168.146C322.96 165.697 322.343 162.824 322.343 159.527C322.343 156.114 322.95 153.164 324.165 150.677C325.379 148.19 327.086 146.271 329.284 144.922C331.501 143.572 334.114 142.897 337.122 142.897C340.207 142.897 342.838 143.61 345.017 145.037C347.196 146.445 348.844 148.469 349.963 151.111C351.081 153.752 351.592 156.905 351.496 160.568H347.157V159.064C347.08 155.015 346.203 151.959 344.526 149.896C342.867 147.833 340.438 146.801 337.237 146.801C333.882 146.801 331.308 147.891 329.515 150.07C327.741 152.248 326.854 155.353 326.854 159.382C326.854 163.316 327.741 166.372 329.515 168.55C331.308 170.71 333.844 171.79 337.122 171.79C339.358 171.79 341.306 171.279 342.964 170.257C344.641 169.216 345.962 167.721 346.926 165.774L350.888 167.307C349.654 170.025 347.832 172.137 345.422 173.641C343.031 175.125 340.322 175.868 337.295 175.868ZM325.351 160.568V157.011H349.211V160.568H325.351ZM370.871 175.868C367.728 175.868 365.067 175.164 362.888 173.756C360.71 172.349 359.052 170.411 357.914 167.943C356.796 165.456 356.217 162.602 356.179 159.382C356.217 156.105 356.815 153.232 357.972 150.764C359.129 148.276 360.796 146.348 362.975 144.979C365.154 143.591 367.795 142.897 370.9 142.897C374.062 142.897 376.809 143.668 379.142 145.211C381.495 146.753 383.105 148.865 383.972 151.545L379.808 152.875C379.075 151.005 377.908 149.559 376.308 148.537C374.727 147.496 372.915 146.975 370.871 146.975C368.576 146.975 366.677 147.505 365.173 148.566C363.669 149.607 362.551 151.063 361.818 152.933C361.086 154.803 360.71 156.953 360.69 159.382C360.729 163.123 361.597 166.131 363.293 168.406C364.99 170.662 367.516 171.79 370.871 171.79C372.992 171.79 374.795 171.308 376.279 170.344C377.783 169.36 378.921 167.933 379.692 166.063L383.972 167.336C382.815 170.112 381.119 172.233 378.882 173.699C376.645 175.145 373.975 175.868 370.871 175.868ZM412.501 175V159.064C412.501 157.329 412.337 155.738 412.009 154.292C411.682 152.827 411.151 151.554 410.419 150.475C409.705 149.375 408.77 148.527 407.613 147.929C406.476 147.332 405.088 147.033 403.449 147.033C401.945 147.033 400.614 147.293 399.458 147.814C398.32 148.334 397.356 149.086 396.565 150.07C395.794 151.034 395.206 152.21 394.801 153.598C394.396 154.986 394.194 156.567 394.194 158.341L391.186 157.676C391.186 154.475 391.745 151.786 392.863 149.607C393.982 147.428 395.524 145.78 397.491 144.661C399.458 143.543 401.713 142.984 404.259 142.984C406.129 142.984 407.758 143.273 409.146 143.851C410.554 144.43 411.74 145.211 412.704 146.194C413.687 147.177 414.477 148.305 415.075 149.578C415.673 150.831 416.107 152.171 416.377 153.598C416.647 155.006 416.782 156.413 416.782 157.821V175H412.501ZM389.913 175V133.353H393.76V156.866H394.194V175H389.913ZM446.846 175V159.064C446.846 157.329 446.682 155.738 446.354 154.292C446.026 152.827 445.496 151.554 444.763 150.475C444.05 149.375 443.115 148.527 441.958 147.929C440.82 147.332 439.432 147.033 437.793 147.033C436.289 147.033 434.959 147.293 433.802 147.814C432.664 148.334 431.7 149.086 430.91 150.07C430.138 151.034 429.55 152.21 429.146 153.598C428.741 154.986 428.538 156.567 428.538 158.341L425.53 157.676C425.53 154.475 426.089 151.786 427.208 149.607C428.326 147.428 429.869 145.78 431.835 144.661C433.802 143.543 436.058 142.984 438.603 142.984C440.473 142.984 442.102 143.273 443.491 143.851C444.898 144.43 446.084 145.211 447.048 146.194C448.031 147.177 448.822 148.305 449.42 149.578C450.017 150.831 450.451 152.171 450.721 153.598C450.991 155.006 451.126 156.413 451.126 157.821V175H446.846ZM424.258 175V143.765H428.104V151.458H428.538V175H424.258ZM471.505 175.868C468.401 175.868 465.75 175.164 463.552 173.756C461.354 172.349 459.667 170.401 458.491 167.914C457.314 165.427 456.726 162.573 456.726 159.353C456.726 156.076 457.324 153.203 458.519 150.735C459.715 148.267 461.412 146.348 463.61 144.979C465.827 143.591 468.459 142.897 471.505 142.897C474.629 142.897 477.29 143.601 479.488 145.008C481.705 146.397 483.392 148.334 484.549 150.822C485.725 153.29 486.313 156.133 486.313 159.353C486.313 162.631 485.725 165.514 484.549 168.001C483.373 170.469 481.676 172.397 479.459 173.785C477.241 175.174 474.59 175.868 471.505 175.868ZM471.505 171.79C474.976 171.79 477.559 170.642 479.256 168.348C480.953 166.034 481.801 163.036 481.801 159.353C481.801 155.574 480.943 152.567 479.227 150.33C477.531 148.093 474.957 146.975 471.505 146.975C469.172 146.975 467.244 147.505 465.721 148.566C464.217 149.607 463.089 151.063 462.337 152.933C461.604 154.784 461.238 156.924 461.238 159.353C461.238 163.113 462.106 166.131 463.841 168.406C465.576 170.662 468.131 171.79 471.505 171.79ZM493.271 175V132.485H497.523V175H493.271ZM519.237 175.868C516.133 175.868 513.482 175.164 511.284 173.756C509.086 172.349 507.399 170.401 506.222 167.914C505.046 165.427 504.458 162.573 504.458 159.353C504.458 156.076 505.056 153.203 506.251 150.735C507.447 148.267 509.143 146.348 511.342 144.979C513.559 143.591 516.191 142.897 519.237 142.897C522.361 142.897 525.021 143.601 527.219 145.008C529.437 146.397 531.124 148.334 532.281 150.822C533.457 153.29 534.045 156.133 534.045 159.353C534.045 162.631 533.457 165.514 532.281 168.001C531.105 170.469 529.408 172.397 527.191 173.785C524.973 175.174 522.322 175.868 519.237 175.868ZM519.237 171.79C522.708 171.79 525.291 170.642 526.988 168.348C528.685 166.034 529.533 163.036 529.533 159.353C529.533 155.574 528.675 152.567 526.959 150.33C525.262 148.093 522.688 146.975 519.237 146.975C516.904 146.975 514.976 147.505 513.453 148.566C511.949 149.607 510.821 151.063 510.069 152.933C509.336 154.784 508.97 156.924 508.97 159.353C508.97 163.113 509.838 166.131 511.573 168.406C513.308 170.662 515.863 171.79 519.237 171.79ZM552.832 189.75C551.232 189.75 549.651 189.509 548.089 189.027C546.547 188.564 545.12 187.822 543.809 186.8C542.498 185.797 541.399 184.486 540.512 182.867L544.358 180.726C545.226 182.462 546.441 183.705 548.002 184.457C549.583 185.229 551.193 185.614 552.832 185.614C555.088 185.614 556.91 185.19 558.298 184.342C559.706 183.513 560.728 182.279 561.364 180.64C562 179.001 562.309 176.957 562.29 174.508V166.179H562.781V143.765H566.57V174.566C566.57 175.453 566.541 176.301 566.483 177.111C566.445 177.94 566.358 178.75 566.223 179.541C565.857 181.874 565.095 183.792 563.938 185.296C562.801 186.8 561.297 187.918 559.426 188.651C557.575 189.384 555.377 189.75 552.832 189.75ZM552.543 175.868C549.632 175.868 547.144 175.145 545.081 173.699C543.018 172.233 541.437 170.257 540.338 167.77C539.239 165.282 538.69 162.477 538.69 159.353C538.69 156.249 539.229 153.453 540.309 150.966C541.408 148.479 542.98 146.512 545.023 145.066C547.067 143.62 549.516 142.897 552.369 142.897C555.3 142.897 557.768 143.61 559.773 145.037C561.779 146.464 563.292 148.421 564.314 150.908C565.355 153.376 565.876 156.191 565.876 159.353C565.876 162.458 565.365 165.263 564.343 167.77C563.321 170.257 561.817 172.233 559.831 173.699C557.845 175.145 555.416 175.868 552.543 175.868ZM552.977 171.905C555.194 171.905 557.026 171.366 558.472 170.286C559.918 169.206 560.998 167.721 561.711 165.832C562.425 163.923 562.781 161.764 562.781 159.353C562.781 156.905 562.425 154.745 561.711 152.875C560.998 150.985 559.918 149.51 558.472 148.45C557.045 147.39 555.242 146.859 553.064 146.859C550.827 146.859 548.976 147.409 547.511 148.508C546.045 149.607 544.956 151.101 544.243 152.991C543.548 154.88 543.201 157.001 543.201 159.353C543.201 161.725 543.558 163.865 544.271 165.774C545.004 167.664 546.093 169.158 547.54 170.257C548.986 171.356 550.798 171.905 552.977 171.905ZM579.11 188.882L585.155 172.484L585.242 177.343L571.562 143.765H576.073L587.295 171.848H585.444L595.798 143.765H600.136L583.362 188.882H579.11Z" fill="black"/>
</g>
<defs>
<filter id="filter0_d_2_19" x="0.0413799" y="-7.62939e-05" width="265.917" height="211.627" filterUnits="userSpaceOnUse" color-interpolation-filters="sRGB">
<feFlood flood-opacity="0" result="BackgroundImageFix"/>
<feColorMatrix in="SourceAlpha" type="matrix" values="0 0 0 0 0 0 0 0 0 0 0 0 0 0 0 0 0 0 127 0" result="hardAlpha"/>
<feOffset dy="2.95862"/>
<feGaussianBlur stdDeviation="1.47931"/>
<feComposite in2="hardAlpha" operator="out"/>
<feColorMatrix type="matrix" values="0 0 0 0 0 0 0 0 0 0 0 0 0 0 0 0 0 0 0.25 0"/>
<feBlend mode="normal" in2="BackgroundImageFix" result="effect1_dropShadow_2_19"/>
<feBlend mode="normal" in="SourceGraphic" in2="effect1_dropShadow_2_19" result="shape"/>
</filter>
<filter id="filter1_d_2_19" x="286.098" y="63.4853" width="318.666" height="135.52" filterUnits="userSpaceOnUse" color-interpolation-filters="sRGB">
<feFlood flood-opacity="0" result="BackgroundImageFix"/>
<feColorMatrix in="SourceAlpha" type="matrix" values="0 0 0 0 0 0 0 0 0 0 0 0 0 0 0 0 0 0 127 0" result="hardAlpha"/>
<feOffset dy="4.62745"/>
<feGaussianBlur stdDeviation="2.31373"/>
<feComposite in2="hardAlpha" operator="out"/>
<feColorMatrix type="matrix" values="0 0 0 0 0 0 0 0 0 0 0 0 0 0 0 0 0 0 0.25 0"/>
<feBlend mode="normal" in2="BackgroundImageFix" result="effect1_dropShadow_2_19"/>
<feBlend mode="normal" in="SourceGraphic" in2="effect1_dropShadow_2_19" result="shape"/>
</filter>
<clipPath id="clip0_2_19">
<rect width="266" height="212" fill="white"/>
</clipPath>
</defs>
</svg>
