<svg width="381" height="156" viewBox="0 0 381 156" fill="none" xmlns="http://www.w3.org/2000/svg">
<path d="M112.739 53.8674C109.133 53.8674 105.884 53.2388 102.99 51.9816C100.096 50.7244 97.6287 48.9335 95.5887 46.6089C93.5724 44.2842 92.0306 41.4852 90.9632 38.2117C89.8957 34.9145 89.362 31.2378 89.362 27.1816C89.362 21.8207 90.2871 17.1477 92.1373 13.1626C94.0113 9.15378 96.6917 6.04636 100.179 3.84033C103.666 1.6343 107.852 0.531286 112.739 0.531286C118.195 0.531286 122.63 1.81221 126.046 4.37405C129.486 6.91217 131.881 10.328 133.234 14.6214L127.968 15.9023C126.853 12.7712 125.014 10.2687 122.452 8.39472C119.914 6.52078 116.748 5.58381 112.952 5.58381C108.943 5.56009 105.611 6.46148 102.954 8.28798C100.297 10.0908 98.2929 12.6289 96.9408 15.9023C95.6124 19.1521 94.9364 22.9118 94.9127 27.1816C94.8889 31.4513 95.5413 35.211 96.8696 38.4608C98.2217 41.6868 100.238 44.2249 102.918 46.0752C105.599 47.9017 108.943 48.8268 112.952 48.8505C116.629 48.8505 119.665 48.1389 122.061 46.7156C124.457 45.2924 126.272 43.2524 127.505 40.5957C128.762 37.9389 129.474 34.7959 129.64 31.1667H117.827V26.6834H135.119C135.191 27.229 135.226 27.8102 135.226 28.4269C135.25 29.0199 135.262 29.4469 135.262 29.7078C135.262 34.3334 134.431 38.4726 132.771 42.1256C131.111 45.7549 128.608 48.6251 125.263 50.7363C121.942 52.8237 117.768 53.8674 112.739 53.8674ZM143.095 52.8V0.495707H148.326V52.8H143.095ZM175.04 53.8674C171.221 53.8674 167.959 53.0016 165.255 51.27C162.551 49.5384 160.475 47.1426 159.028 44.0826C157.581 41.0226 156.858 37.512 156.858 33.5506C156.858 29.5181 157.593 25.9837 159.064 22.9474C160.534 19.9111 162.622 17.5509 165.326 15.8668C168.054 14.1589 171.292 13.3049 175.04 13.3049C178.882 13.3049 182.156 14.1707 184.86 15.9023C187.588 17.6102 189.664 19.9942 191.087 23.0542C192.534 26.0904 193.257 29.5892 193.257 33.5506C193.257 37.5831 192.534 41.1294 191.087 44.1894C189.64 47.2256 187.552 49.5977 184.825 51.3056C182.097 53.0135 178.835 53.8674 175.04 53.8674ZM175.04 48.8505C179.309 48.8505 182.488 47.4391 184.575 44.6163C186.663 41.7698 187.707 38.0813 187.707 33.5506C187.707 28.9013 186.651 25.2009 184.54 22.4493C182.452 19.6977 179.286 18.3219 175.04 18.3219C172.17 18.3219 169.797 18.9742 167.923 20.2788C166.073 21.5597 164.686 23.3507 163.76 25.6516C162.859 27.9288 162.408 30.5618 162.408 33.5506C162.408 38.1761 163.476 41.8884 165.611 44.6875C167.746 47.4628 170.889 48.8505 175.04 48.8505ZM218.363 53.8674C214.829 53.8674 211.84 52.9779 209.397 51.1988C206.953 49.3961 205.103 46.9647 203.846 43.9047C202.589 40.821 201.96 37.3696 201.96 33.5506C201.96 29.6604 202.589 26.1972 203.846 23.1609C205.127 20.1009 207.001 17.6933 209.468 15.9379C211.935 14.1826 214.971 13.3049 218.577 13.3049C222.087 13.3049 225.1 14.1944 227.614 15.9735C230.129 17.7526 232.05 20.1721 233.378 23.2321C234.73 26.292 235.406 29.7315 235.406 33.5506C235.406 37.3934 234.73 40.8447 233.378 43.9047C232.026 46.9647 230.081 49.3961 227.543 51.1988C225.005 52.9779 221.945 53.8674 218.363 53.8674ZM201.071 52.8V1.56314H206.337V23.8725H205.767V52.8H201.071ZM217.829 48.9928C220.51 48.9928 222.74 48.3168 224.519 46.9647C226.298 45.6126 227.626 43.7742 228.504 41.4496C229.405 39.1012 229.856 36.4682 229.856 33.5506C229.856 30.6567 229.417 28.0474 228.539 25.7227C227.662 23.3981 226.321 21.5597 224.519 20.2077C222.74 18.8556 220.474 18.1795 217.723 18.1795C215.042 18.1795 212.812 18.8319 211.033 20.1365C209.278 21.4411 207.962 23.2558 207.084 25.5804C206.206 27.8813 205.767 30.5381 205.767 33.5506C205.767 36.5157 206.206 39.1724 207.084 41.5208C207.962 43.8454 209.29 45.6719 211.069 47.0003C212.848 48.3286 215.101 48.9928 217.829 48.9928ZM254.214 53.8674C251.32 53.8674 248.889 53.3456 246.92 52.3019C244.975 51.2581 243.516 49.8705 242.544 48.1389C241.571 46.4072 241.085 44.5214 241.085 42.4815C241.085 40.394 241.5 38.615 242.33 37.1443C243.184 35.6499 244.335 34.4283 245.782 33.4794C247.252 32.5306 248.948 31.8071 250.87 31.309C252.815 30.8346 254.962 30.4194 257.31 30.0636C259.682 29.6841 261.995 29.3639 264.248 29.1029C266.526 28.8183 268.518 28.5455 270.226 28.2846L268.376 29.4232C268.447 25.6279 267.712 22.8169 266.17 20.9904C264.628 19.1639 261.947 18.2507 258.128 18.2507C255.495 18.2507 253.266 18.8437 251.439 20.0298C249.636 21.2158 248.367 23.0897 247.632 25.6516L242.544 24.1572C243.421 20.7177 245.189 18.0491 247.845 16.1514C250.502 14.2537 253.954 13.3049 258.2 13.3049C261.71 13.3049 264.687 13.9691 267.13 15.2975C269.597 16.6021 271.341 18.4998 272.361 20.9904C272.835 22.1053 273.144 23.3507 273.286 24.7265C273.428 26.1023 273.499 27.5018 273.499 28.925V52.8H268.838V43.1575L270.19 43.7268C268.886 47.024 266.858 49.5384 264.106 51.27C261.354 53.0016 258.057 53.8674 254.214 53.8674ZM254.819 49.3486C257.263 49.3486 259.397 48.9098 261.224 48.0321C263.05 47.1544 264.521 45.9565 265.636 44.4384C266.751 42.8966 267.474 41.165 267.806 39.2436C268.091 38.0101 268.245 36.658 268.269 35.1873C268.293 33.6929 268.305 32.578 268.305 31.8427L270.297 32.8745C268.518 33.1118 266.585 33.349 264.497 33.5862C262.434 33.8234 260.394 34.0962 258.377 34.4045C256.385 34.7129 254.582 35.0806 252.969 35.5076C251.878 35.8159 250.822 36.2548 249.802 36.8241C248.782 37.3696 247.94 38.105 247.276 39.0301C246.636 39.9552 246.315 41.1057 246.315 42.4815C246.315 43.5963 246.588 44.6756 247.134 45.7193C247.703 46.7631 248.604 47.6289 249.838 48.3168C251.095 49.0047 252.756 49.3486 254.819 49.3486ZM283.474 52.8V0.495707H288.704V52.8H283.474ZM18.1341 137.8V91.5801H0.2368V86.5631H41.2619V91.5801H23.3645V137.8H18.1341ZM57.5297 138.867C53.7818 138.867 50.532 138.037 47.7804 136.377C45.0525 134.716 42.9295 132.38 41.4114 129.367C39.8933 126.355 39.1342 122.82 39.1342 118.764C39.1342 114.566 39.8814 110.936 41.3758 107.876C42.8702 104.816 44.9695 102.456 47.6737 100.796C50.4016 99.1351 53.6157 98.3049 57.3162 98.3049C61.1115 98.3049 64.3494 99.1826 67.0298 100.938C69.7103 102.67 71.7384 105.16 73.1142 108.41C74.49 111.66 75.1186 115.538 75 120.045H69.6628V118.195C69.568 113.213 68.4887 109.454 66.425 106.916C64.385 104.377 61.3962 103.108 57.4585 103.108C53.3311 103.108 50.1644 104.449 47.9583 107.129C45.776 109.809 44.6849 113.629 44.6849 118.586C44.6849 123.425 45.776 127.185 47.9583 129.865C50.1644 132.522 53.2837 133.85 57.3162 133.85C60.0678 133.85 62.4636 133.222 64.5036 131.965C66.5673 130.684 68.1922 128.845 69.3782 126.45L74.2528 128.335C72.7347 131.68 70.4931 134.277 67.528 136.128C64.5866 137.954 61.2538 138.867 57.5297 138.867ZM42.8347 120.045V115.669H72.1891V120.045H42.8347ZM98.8366 138.867C94.9701 138.867 91.6966 138.002 89.0162 136.27C86.3357 134.538 84.2958 132.154 82.8962 129.118C81.5204 126.058 80.8088 122.548 80.7614 118.586C80.8088 114.554 81.5442 111.019 82.9674 107.983C84.3906 104.923 86.4425 102.551 89.1229 100.867C91.8034 99.1589 95.0531 98.3049 98.8722 98.3049C102.762 98.3049 106.143 99.2537 109.013 101.151C111.907 103.049 113.887 105.646 114.955 108.944L109.831 110.58C108.93 108.279 107.495 106.5 105.526 105.243C103.581 103.962 101.351 103.322 98.8366 103.322C96.0138 103.322 93.6773 103.974 91.8271 105.279C89.9769 106.56 88.6011 108.351 87.6997 110.652C86.7983 112.952 86.3357 115.597 86.312 118.586C86.3595 123.188 87.4269 126.888 89.5143 129.687C91.6018 132.463 94.7092 133.85 98.8366 133.85C101.446 133.85 103.664 133.257 105.49 132.071C107.34 130.862 108.74 129.106 109.689 126.805L114.955 128.371C113.532 131.787 111.444 134.396 108.693 136.199C105.941 137.978 102.656 138.867 98.8366 138.867ZM150.053 137.8V118.195C150.053 116.06 149.851 114.103 149.448 112.324C149.045 110.521 148.392 108.956 147.491 107.627C146.613 106.275 145.463 105.231 144.04 104.496C142.64 103.761 140.932 103.393 138.916 103.393C137.066 103.393 135.429 103.713 134.006 104.354C132.606 104.994 131.42 105.919 130.448 107.129C129.499 108.315 128.775 109.762 128.277 111.47C127.779 113.178 127.53 115.123 127.53 117.305L123.83 116.487C123.83 112.549 124.517 109.24 125.893 106.56C127.269 103.879 129.167 101.851 131.586 100.475C134.006 99.0996 136.781 98.4117 139.912 98.4117C142.213 98.4117 144.218 98.7675 145.925 99.4791C147.657 100.191 149.116 101.151 150.302 102.361C151.512 103.571 152.484 104.959 153.22 106.524C153.955 108.066 154.489 109.715 154.821 111.47C155.153 113.202 155.319 114.933 155.319 116.665V137.8H150.053ZM122.264 137.8V86.5631H126.996V115.491H127.53V137.8H122.264ZM192.305 137.8V118.195C192.305 116.06 192.104 114.103 191.701 112.324C191.297 110.521 190.645 108.956 189.744 107.627C188.866 106.275 187.716 105.231 186.292 104.496C184.893 103.761 183.185 103.393 181.169 103.393C179.318 103.393 177.682 103.713 176.258 104.354C174.859 104.994 173.673 105.919 172.7 107.129C171.751 108.315 171.028 109.762 170.53 111.47C170.032 113.178 169.783 115.123 169.783 117.305L166.082 116.487C166.082 112.549 166.77 109.24 168.146 106.56C169.522 103.879 171.419 101.851 173.839 100.475C176.258 99.0996 179.034 98.4117 182.165 98.4117C184.466 98.4117 186.47 98.7675 188.178 99.4791C189.91 100.191 191.368 101.151 192.555 102.361C193.764 103.571 194.737 104.959 195.472 106.524C196.208 108.066 196.741 109.715 197.073 111.47C197.405 113.202 197.571 114.933 197.571 116.665V137.8H192.305ZM164.517 137.8V99.3724H169.249V108.837H169.783V137.8H164.517ZM222.643 138.867C218.824 138.867 215.563 138.002 212.859 136.27C210.154 134.538 208.079 132.143 206.632 129.083C205.185 126.023 204.461 122.512 204.461 118.551C204.461 114.518 205.197 110.984 206.667 107.947C208.138 104.911 210.226 102.551 212.93 100.867C215.658 99.1589 218.896 98.3049 222.643 98.3049C226.486 98.3049 229.76 99.1707 232.464 100.902C235.192 102.61 237.267 104.994 238.69 108.054C240.137 111.09 240.861 114.589 240.861 118.551C240.861 122.583 240.137 126.129 238.69 129.189C237.244 132.226 235.156 134.598 232.428 136.306C229.7 138.013 226.439 138.867 222.643 138.867ZM222.643 133.85C226.913 133.85 230.092 132.439 232.179 129.616C234.267 126.77 235.31 123.081 235.31 118.551C235.31 113.901 234.255 110.201 232.144 107.449C230.056 104.698 226.889 103.322 222.643 103.322C219.773 103.322 217.401 103.974 215.527 105.279C213.677 106.56 212.289 108.351 211.364 110.652C210.463 112.929 210.012 115.562 210.012 118.551C210.012 123.176 211.08 126.888 213.214 129.687C215.349 132.463 218.492 133.85 222.643 133.85ZM249.422 137.8V85.4957H254.652V137.8H249.422ZM281.366 138.867C277.547 138.867 274.286 138.002 271.581 136.27C268.877 134.538 266.802 132.143 265.355 129.083C263.908 126.023 263.184 122.512 263.184 118.551C263.184 114.518 263.92 110.984 265.39 107.947C266.861 104.911 268.948 102.551 271.653 100.867C274.38 99.1589 277.618 98.3049 281.366 98.3049C285.209 98.3049 288.482 99.1707 291.187 100.902C293.914 102.61 295.99 104.994 297.413 108.054C298.86 111.09 299.584 114.589 299.584 118.551C299.584 122.583 298.86 126.129 297.413 129.189C295.966 132.226 293.879 134.598 291.151 136.306C288.423 138.013 285.162 138.867 281.366 138.867ZM281.366 133.85C285.636 133.85 288.815 132.439 290.902 129.616C292.989 126.77 294.033 123.081 294.033 118.551C294.033 113.901 292.978 110.201 290.866 107.449C288.779 104.698 285.612 103.322 281.366 103.322C278.496 103.322 276.124 103.974 274.25 105.279C272.4 106.56 271.012 108.351 270.087 110.652C269.186 112.929 268.735 115.562 268.735 118.551C268.735 123.176 269.802 126.888 271.937 129.687C274.072 132.463 277.215 133.85 281.366 133.85ZM322.697 155.946C320.728 155.946 318.783 155.65 316.862 155.057C314.964 154.488 313.209 153.574 311.596 152.317C309.983 151.084 308.631 149.471 307.539 147.478L312.272 144.845C313.339 146.98 314.834 148.51 316.755 149.435C318.7 150.384 320.681 150.858 322.697 150.858C325.472 150.858 327.714 150.336 329.422 149.293C331.153 148.273 332.411 146.755 333.193 144.738C333.976 142.722 334.356 140.208 334.332 137.195V126.948H334.937V99.3724H339.598V137.266C339.598 138.357 339.562 139.401 339.491 140.397C339.444 141.417 339.337 142.414 339.171 143.386C338.72 146.256 337.783 148.617 336.36 150.467C334.961 152.317 333.11 153.693 330.81 154.594C328.532 155.496 325.828 155.946 322.697 155.946ZM322.341 138.867C318.759 138.867 315.699 137.978 313.161 136.199C310.623 134.396 308.678 131.965 307.326 128.905C305.974 125.845 305.298 122.393 305.298 118.551C305.298 114.732 305.962 111.292 307.29 108.232C308.642 105.172 310.576 102.753 313.09 100.974C315.605 99.1944 318.617 98.3049 322.128 98.3049C325.733 98.3049 328.77 99.1826 331.236 100.938C333.703 102.693 335.566 105.101 336.823 108.161C338.104 111.197 338.744 114.66 338.744 118.551C338.744 122.37 338.116 125.821 336.858 128.905C335.601 131.965 333.751 134.396 331.308 136.199C328.864 137.978 325.876 138.867 322.341 138.867ZM322.875 133.993C325.603 133.993 327.856 133.329 329.635 132C331.414 130.672 332.743 128.845 333.62 126.521C334.498 124.172 334.937 121.516 334.937 118.551C334.937 115.538 334.498 112.881 333.62 110.58C332.743 108.256 331.414 106.441 329.635 105.136C327.88 103.832 325.662 103.18 322.982 103.18C320.23 103.18 317.953 103.856 316.15 105.208C314.347 106.56 313.007 108.398 312.129 110.723C311.275 113.047 310.849 115.657 310.849 118.551C310.849 121.468 311.287 124.101 312.165 126.45C313.066 128.774 314.407 130.613 316.186 131.965C317.965 133.317 320.194 133.993 322.875 133.993ZM355.026 154.879L362.462 134.704L362.569 140.682L345.739 99.3724H351.29L365.095 133.922H362.818L375.556 99.3724H380.893L360.256 154.879H355.026Z" fill="black"/>
</svg>
